<?xml version="1.0" encoding="UTF-8" standalone="no"?>
<!-- Created with Inkscape (http://www.inkscape.org/) -->

<svg
   version="1.1"
   id="svg1"
   width="24"
   height="24"
   viewBox="0 0 24 24"
   sodipodi:docname="ashy_terminal.pdf"
   xmlns:inkscape="http://www.inkscape.org/namespaces/inkscape"
   xmlns:sodipodi="http://sodipodi.sourceforge.net/DTD/sodipodi-0.dtd"
   xmlns="http://www.w3.org/2000/svg"
   xmlns:svg="http://www.w3.org/2000/svg">
  <defs
     id="defs1">
    <linearGradient
       x1="22.1875"
       y1="23.0625"
       x2="5.318624"
       y2="5.3239861"
       gradientUnits="userSpaceOnUse"
       gradientTransform="scale(0.75)"
       spreadMethod="pad"
       id="linearGradient3">
      <stop
         style="stop-opacity:1;stop-color:#1a1a1a"
         offset="0"
         id="stop1" />
      <stop
         style="stop-opacity:1;stop-color:#1a1a1a"
         offset="0.997054"
         id="stop2" />
      <stop
         style="stop-opacity:1;stop-color:#d5e5ff"
         offset="1"
         id="stop3" />
    </linearGradient>
  </defs>
  <sodipodi:namedview
     id="namedview1"
     pagecolor="#ffffff"
     bordercolor="#000000"
     borderopacity="0.25"
     inkscape:showpageshadow="2"
     inkscape:pageopacity="0.0"
     inkscape:pagecheckerboard="0"
     inkscape:deskcolor="#d1d1d1">
    <inkscape:page
       x="0"
       y="0"
       inkscape:label="1"
       id="page1"
       width="24"
       height="24"
       margin="0"
       bleed="0" />
  </sodipodi:namedview>
  <g
     id="g1"
     inkscape:groupmode="layer"
     inkscape:label="1">
    <path
       id="path3"
       d="m 5.699,0.75 h 6.602 c 2.742,0 4.949,2.207 4.949,4.949 v 6.602 c 0,2.742 -2.207,4.949 -4.949,4.949 H 5.699 C 2.957,17.25 0.75,15.043 0.75,12.301 V 5.699 C 0.75,2.957 2.957,0.75 5.699,0.75 Z"
       transform="scale(1.3333333)"
       style="fill:url(#linearGradient3);stroke:none" />
    <path
       id="path4"
       d="m 9.586,13.402 h 5.68 c 0.226,0 0.406,0.184 0.406,0.407 0,0.226 -0.18,0.406 -0.406,0.406 h -5.68 c -0.227,0 -0.406,-0.18 -0.406,-0.406 0,-0.223 0.179,-0.407 0.406,-0.407 z"
       style="fill:#0055d4;fill-opacity:1;fill-rule:nonzero;stroke:none"
       transform="scale(1.3333333)" />
    <path
       id="path5"
       d="M 7.152,6.039 C 6.992,6.016 6.832,6.098 6.754,6.238 6.637,6.434 6.707,6.68 6.902,6.793 l 4.36,2.516 -4.36,2.519 c -0.199,0.11 -0.265,0.36 -0.152,0.555 0.117,0.195 0.363,0.262 0.559,0.148 l 4.918,-2.84 c 0.125,-0.074 0.199,-0.203 0.195,-0.347 0.004,-0.012 0.004,-0.024 0.004,-0.032 0,-0.011 0,-0.023 -0.004,-0.035 0,-0.14 -0.07,-0.273 -0.195,-0.343 L 7.309,6.09 C 7.262,6.062 7.207,6.047 7.152,6.039 Z"
       style="fill:#0055d4;fill-opacity:1;fill-rule:nonzero;stroke:none"
       transform="scale(1.3333333)" />
  </g>
</svg>
